<?xml version="1.0" encoding="utf-8" ?>
<svg xmlns="http://www.w3.org/2000/svg" xmlns:xlink="http://www.w3.org/1999/xlink" width="512" height="512">
	<path fill="#001630" d="M0 -0L512 0L512 512L-0 512L0 -0Z"/>
	<path fill="#2973B1" d="M355.194 276.883C357.149 276.729 359.053 276.972 361.012 276.979C364.353 276.992 368.394 276.556 371.645 277.205C368.693 279.328 365.894 281.608 363.337 284.2L363.135 284.408C360.85 281.907 358.274 279.068 355.51 277.103L355.194 276.883Z"/>
	<path fill="#57B4F5" d="M208.738 253.477C209.936 254.78 210.649 256.195 211.606 257.657C213.335 260.301 215.079 262.956 217.039 265.436C221.129 270.612 226.157 275.009 229.92 280.44C228.954 284.636 227.652 288.672 226.218 292.73C224.47 297.675 222.353 303.369 218.582 307.154C216.866 305.098 216.051 301.456 215.398 298.875C213.395 290.954 212.411 282.771 211.254 274.691L209.52 261.424C209.205 258.762 208.788 256.162 208.738 253.477Z"/>
	<path fill="#57B4F5" d="M300.804 209.221L307.94 223.76C307.366 224.112 307.454 224.358 307.304 224.994L302.839 247.788C301.895 252.593 300.914 257.365 299.218 261.974C298.576 263.719 297.911 265.663 296.891 267.231C294.678 263.389 291.276 259.295 288.132 256.209C288.476 254.848 289.175 253.54 289.658 252.215C290.412 250.147 291.029 247.991 291.554 245.854L295.306 227.367C296.461 221.412 297.466 214.368 300.804 209.221Z"/>
	<path fill="#2973B1" d="M296.891 267.231C297.911 265.663 298.576 263.719 299.218 261.974C300.914 257.365 301.895 252.593 302.839 247.788L307.304 224.994C307.454 224.358 307.366 224.112 307.94 223.76C310.177 229.396 310.635 236.186 311.565 242.169L317.775 284.873L308.759 297.979C307.27 289.625 305.116 281.746 301.159 274.17C299.904 271.769 298.36 269.504 296.891 267.231Z"/>
	<path fill="#FDFDFD" d="M239.871 359.909C246.116 361.189 252.524 361.81 258.823 360.607L259.233 403.786L259.283 412.441C259.291 414.037 259.124 415.798 259.611 417.321L258.851 417.527C257.317 417.82 255.643 417.339 254.375 416.466C252.857 415.42 251.98 413.636 251.375 411.943C250.223 408.717 249.508 405.276 248.767 401.936L245.556 386.372L239.871 359.909Z"/>
	<path fill="#57B4F5" d="M258.575 346.55C265.686 345.925 271.456 342.894 277.794 340.004C277.622 342.776 276.96 345.514 276.474 348.245L274.563 359.769L268.765 391.453C267.547 397.787 266.589 404.43 264.697 410.599C264.103 412.538 263.332 414.567 261.788 415.944C261.103 416.555 260.468 416.981 259.611 417.321C259.124 415.798 259.291 414.037 259.283 412.441L259.233 403.786L258.823 360.607C259.135 359.137 258.842 357.368 258.818 355.857C258.769 352.772 258.875 349.618 258.575 346.55Z"/>
	<path fill="#D6DFE5" d="M406.718 275.782C408.357 275.042 410.225 274.117 411.966 274.776C413.503 275.358 414.761 276.443 415.432 277.965C416.506 280.401 416.226 282.907 415.978 285.473L414.846 293.511C412.684 305.324 409.721 316.443 405.025 327.517C388.4 366.718 356.619 398.981 317.05 414.961C310.139 417.752 303.069 420.005 295.818 421.732C291.863 422.674 287.825 423.595 283.75 423.754C282.149 423.817 280.227 423.969 278.743 423.282C277.327 422.628 276.313 421.138 275.892 419.671C275.374 417.862 276.386 414.033 277.075 412.289L277.289 412.544C278.471 412.804 280.132 412.496 281.33 412.327C283.731 411.989 286.061 411.587 288.415 411.005C304.41 407.05 319.672 401.197 333.835 392.715C354.804 380.157 372.451 362.221 384.931 341.196C387.01 337.693 388.795 333.95 390.583 330.289C394.31 322.653 397.713 314.836 400.375 306.761C402.073 301.612 403.357 296.398 404.634 291.136C404.946 289.852 407.364 277.039 407.225 276.625C407.121 276.314 406.887 276.063 406.718 275.782Z"/>
	<path fill="#FDFDFD" d="M300.804 209.221C302.228 207.177 303.974 205.505 306.474 204.908L306.799 204.828C308.841 204.371 311.259 204.922 312.958 206.125C314.61 207.295 315.662 208.966 316.546 210.745C319.547 216.785 320.259 224.172 321.273 230.75L323.484 246.014C325.079 244.963 326.949 244.24 328.656 243.372C330.906 242.227 334.851 239.523 337.375 239.533C338.637 240.088 338.914 240.496 339.405 241.754L340.463 244.045C341.614 239.138 343.265 233.003 347.875 230.233C349.497 229.259 350.972 229.085 352.781 229.588C355.329 230.297 357.296 232.356 358.497 234.629C361.577 240.458 361.332 249.163 366.55 253.617C369.561 254.269 372.652 254.406 375.648 255.071C380.732 256.199 388.426 259.601 391.361 264.152C391.654 264.606 391.742 264.974 391.821 265.5C391.749 265.733 391.628 266.259 391.508 266.462C389.426 270.897 385.844 272.911 381.375 274.49L371.645 277.205C368.394 276.556 364.353 276.992 361.012 276.979C359.053 276.972 357.149 276.729 355.194 276.883L346.307 273.659C344.75 282.413 342.693 298.29 334.764 303.679C333.037 304.853 330.996 305.437 328.927 304.979C325.81 304.288 323.62 302.183 322.014 299.5C319.416 295.16 318.708 289.769 317.775 284.873L311.565 242.169C310.635 236.186 310.177 229.396 307.94 223.76L300.804 209.221Z"/>
	<path fill="#57B4F5" d="M323.484 246.014C325.079 244.963 326.949 244.24 328.656 243.372C330.906 242.227 334.851 239.523 337.375 239.533C338.637 240.088 338.914 240.496 339.405 241.754L340.463 244.045C340.439 246.041 339.869 248.157 339.501 250.125L337.274 261.653C335.708 269.776 334.598 278.156 332.589 286.175C332.16 287.884 331.481 289.551 330.705 291.13C329.553 287.798 328.996 284.41 328.418 280.941L326.268 265.991L323.484 246.014Z"/>
	<path fill="#57B4F5" d="M346.307 273.659L350.856 249.091C352.356 253.768 354.026 258.76 357.584 262.306C359.21 263.925 361.109 265.11 363.326 265.74C367.057 266.799 371.522 266.447 375.374 266.46L391.508 266.462C389.426 270.897 385.844 272.911 381.375 274.49L371.645 277.205C368.394 276.556 364.353 276.992 361.012 276.979C359.053 276.972 357.149 276.729 355.194 276.883L346.307 273.659Z"/>
	<path fill="#FDFDFD" d="M277.075 412.289L282.594 392.674C283.112 391.075 283.677 389.01 285.125 388.023C287.569 386.357 291.457 385.891 294.296 385.124C296.749 384.461 299.238 383.593 301.625 382.72C307.152 380.697 312.486 378.221 317.722 375.544C342.893 362.675 362.496 339.809 372.825 313.628C374.37 309.711 375.696 305.651 376.808 301.589C377.577 298.785 378.166 295.88 379.1 293.129C379.571 291.744 380.368 290.792 381.497 289.868C384.203 287.653 387.865 286.046 390.933 284.35L406.718 275.782C406.887 276.063 407.121 276.314 407.225 276.625C407.364 277.039 404.946 289.852 404.634 291.136C403.357 296.398 402.073 301.612 400.375 306.761C397.713 314.836 394.31 322.653 390.583 330.289C388.795 333.95 387.01 337.693 384.931 341.196C372.451 362.221 354.804 380.157 333.835 392.715C319.672 401.197 304.41 407.05 288.415 411.005C286.061 411.587 283.731 411.989 281.33 412.327C280.132 412.496 278.471 412.804 277.289 412.544L277.075 412.289Z"/>
	<path fill="#FDFDFD" d="M176.575 255.276L181.677 226.054C182.5 221.924 183.217 217.679 184.623 213.699C185.757 210.49 187.325 207.313 190.588 205.802L190.916 205.656C191.198 205.528 191.465 205.397 191.769 205.326C193.481 204.923 195.411 205.326 196.874 206.258C198.84 207.511 200.05 209.416 200.923 211.532C203.662 218.173 204.327 226.114 205.366 233.179L208.738 253.477C208.788 256.162 209.205 258.762 209.52 261.424L211.254 274.691C212.411 282.771 213.395 290.954 215.398 298.875C216.051 301.456 216.866 305.098 218.582 307.154C217.728 307.773 216.718 308.409 215.679 308.645C213.776 309.078 211.651 308.914 209.992 307.835C208.449 306.83 207.153 305.319 206.28 303.703C204.823 301.005 204.046 297.615 203.407 294.625L200.433 278.061C199.05 278.388 197.204 280.672 196.111 281.682L189.359 287.687C187.663 289.122 185.873 290.429 184.062 291.713C183.788 291.907 182.771 292.739 182.5 292.768C182.195 292.802 181.498 292.544 181.168 292.471C180.899 294.55 179.608 296.867 178.527 298.638C177.076 301.014 175.192 303.126 172.322 303.681C170.35 304.063 168.272 303.448 166.662 302.296C163.635 300.129 162.066 296.731 160.933 293.296C158.742 286.654 157.954 279.598 156.895 272.715C151.936 275.624 147.416 277.921 141.761 279.142C138.437 277.995 135.462 275.993 132.34 274.404C129.725 273.072 126.537 271.942 124.204 270.153C122.771 269.054 121.914 267.853 121.077 266.281C120.543 261.209 130.729 257.392 134.308 255.613C136.652 254.448 139.033 253.241 141.037 251.529C144.24 248.794 145.812 245.09 148.076 241.654C149.499 239.494 151.466 237.667 154.102 237.218C155.994 236.896 158.295 237.229 159.875 238.351C164.42 241.577 164.985 250.969 165.804 256.013C169.51 255.849 172.871 255.875 176.575 255.276Z"/>
	<path fill="#57B4F5" d="M176.575 255.276L170.869 287.313L165.804 256.013C169.51 255.849 172.871 255.875 176.575 255.276Z"/>
	<path fill="#57B4F5" d="M121.077 266.281L133.1 266.233C136.255 266.215 139.538 266.287 142.625 265.572L143.008 265.487C147.11 264.55 151.091 261.174 153.266 257.625L154.32 255.752L156.895 272.715C151.936 275.624 147.416 277.921 141.761 279.142C138.437 277.995 135.462 275.993 132.34 274.404C129.725 273.072 126.537 271.942 124.204 270.153C122.771 269.054 121.914 267.853 121.077 266.281Z"/>
	<path fill="#2973B1" d="M181.168 292.471L192.937 226.659C194.535 231.791 194.762 237.84 195.528 243.192L200.433 278.061C199.05 278.388 197.204 280.672 196.111 281.682L189.359 287.687C187.663 289.122 185.873 290.429 184.062 291.713C183.788 291.907 182.771 292.739 182.5 292.768C182.195 292.802 181.498 292.544 181.168 292.471Z"/>
	<path fill="#FDFDFD" d="M232.683 111.595C233.609 111.484 234.664 111.634 235.57 111.845C236.913 112.156 238.395 113.141 239.088 114.345C239.382 114.855 239.787 115.628 239.83 116.205C240.011 118.658 238.404 122.374 237.76 124.726L232.894 142.187C232.404 143.791 231.627 145.777 230.245 146.82C228.121 148.423 224.295 149.069 221.763 149.873L213.322 152.863C208.878 154.599 204.599 156.67 200.375 158.883C178.756 170.211 161.236 188.308 149.282 209.417C147.098 213.274 144.963 217.129 143.187 221.197C140.935 226.354 139.42 231.585 137.733 236.925C137.16 238.739 136.495 240.17 134.989 241.402C133.358 242.736 131.259 243.602 129.385 244.556L121.525 248.794C116.852 251.444 112.409 254.618 107.662 257.093L105.982 257.625C104.91 257.876 104.098 257.752 103.195 257.103C101.94 256.201 101.24 255.023 101.012 253.502C100.331 248.962 101.648 243.349 102.494 238.875C107.048 214.77 117.607 192.24 132.335 172.68C156.193 140.995 193.142 117.174 232.683 111.595Z"/>
	<path fill="#FDFDFD" d="M281.618 111.562C284.208 111.36 286.96 111.991 289.5 112.479C299.637 114.424 309.556 117.465 319.047 121.521C339.556 130.286 358.632 143.753 373.875 160.049C377.412 163.83 380.644 167.912 383.831 171.986C393.018 183.733 400.779 196.578 406.308 210.456C410.296 220.468 413.05 230.711 414.913 241.307C415.658 245.546 417.019 250.857 415.196 254.959C414.204 257.192 413.021 258.008 410.821 258.852L410.019 258.615C405.979 257.226 402.03 254.256 398.316 252.125L385.836 244.968C384.126 243.989 382.364 243.044 380.829 241.8C380.535 241.562 379.868 241.121 379.672 240.822C379.144 240.018 378.811 238.287 378.538 237.341L376.1 229.076C374.639 224.703 372.851 220.302 370.837 216.153C357.277 188.23 334.597 166.591 306.155 154.275C302.645 152.755 299.074 151.376 295.422 150.234C292.836 149.425 290.158 148.817 287.608 147.905C285.683 147.216 284.632 146.248 283.802 144.375C282.19 140.735 281.438 136.324 280.329 132.477C278.996 127.854 277.155 122.966 276.302 118.25C276.098 117.126 276.187 115.994 276.644 114.946C277.431 113.139 279.887 112.075 281.618 111.562Z"/>
	<path fill="#FDFDFD" d="M105.253 275.017C106.833 275.12 108.007 275.491 109.435 276.152C114.544 278.517 119.434 281.747 124.37 284.487C127.917 286.456 131.952 288.18 135.291 290.449C136.089 290.992 136.685 291.589 137.14 292.444C138.541 295.082 139 298.493 139.758 301.375L142.63 310.432C149.885 329.938 162.156 348.307 178.161 361.712C186.924 369.051 196.78 374.905 207.171 379.631C211.725 381.703 216.474 383.474 221.25 384.962C224.06 385.837 227.606 386.339 230.193 387.726C232.678 389.058 233.443 392.531 234.187 395.062C235.269 398.74 241.099 417.701 239.422 420.665C238.37 422.526 237.265 423.398 235.181 423.955C232.091 424.124 229.271 423.56 226.25 422.995C219.776 421.783 213.098 419.868 206.875 417.699C190.869 412.12 175.984 403.513 162.678 393.075C159.462 390.551 156.169 388.039 153.132 385.302C137.504 371.212 124.232 353.504 115.178 334.504C108.376 320.229 103.391 304.711 101.356 288.996C100.941 285.793 100.18 281.954 101.324 278.875C102.058 276.902 103.389 275.893 105.253 275.017Z"/>
	<path fill="#FDFDFD" d="M237.088 344.554C232.842 342.894 227.446 340.82 224.561 337.111C222.86 334.926 222.119 332.304 222.603 329.562C222.984 327.409 224.12 325.532 225.924 324.266C226.859 323.609 228.134 322.953 229.294 322.875C231.969 322.695 235.095 324.249 237.555 325.205C240.427 326.321 243.399 327.416 246.442 327.963C253.661 329.261 260.775 328.516 266.89 324.188C271.875 320.66 275.05 315.227 276.093 309.257C276.882 304.742 276.867 299.876 275.717 295.421C274.81 291.908 273.142 288.543 271.001 285.625C268.561 282.299 265.534 279.598 261.909 277.625C258.099 275.551 253.705 274.432 249.633 272.987C246.296 271.803 243.112 270.273 240.055 268.49C230.188 262.734 222.876 252.434 220.046 241.448C218.24 234.434 218.237 226.77 219.999 219.75C221.455 213.945 224.059 208.439 227.676 203.656C230.024 200.549 234.023 197.821 235.076 194C235.821 191.3 236.201 188.473 236.749 185.727L239.745 170.992L246.368 140.312L249.591 126.886C250.186 124.781 250.7 122.47 251.79 120.561L252.045 120.125C253.031 118.523 255.337 116.84 257.175 116.46C258.11 116.267 258.68 116.417 259.472 116.916C261.704 117.621 263.133 119.003 264.171 121.083C266.601 125.958 267.53 132.213 268.776 137.522L276.892 175.875C277.825 180.645 279.116 185.536 279.598 190.364C284.179 192.089 289.931 193.854 292.145 198.695C293.062 200.701 293.044 203.605 292.214 205.635C291.409 207.602 289.813 208.985 287.86 209.784C286.063 210.519 284.205 210.364 282.375 209.866C279.631 209.119 277.057 207.976 274.343 207.161C266.157 204.701 257.476 204.649 249.952 209.056C244.586 212.2 240.436 217.714 238.925 223.742C237.143 230.846 238.049 238.323 241.902 244.596C249.022 256.19 262.121 256.193 272.899 262.345C276.636 264.478 279.738 267.207 282.692 270.304C294.097 282.262 298.367 298.262 294.623 314.301C293.131 320.691 290.108 327.307 285.821 332.307C283.39 335.144 280.57 337.522 277.794 340.004C271.456 342.894 265.686 345.925 258.575 346.55C258.875 349.618 258.769 352.772 258.818 355.857C258.842 357.368 259.135 359.137 258.823 360.607C252.524 361.81 246.116 361.189 239.871 359.909L237.088 344.554Z"/>
	<path fill="#57B4F5" d="M237.088 344.554C244.199 346.145 251.253 347.477 258.575 346.55C258.875 349.618 258.769 352.772 258.818 355.857C258.842 357.368 259.135 359.137 258.823 360.607C252.524 361.81 246.116 361.189 239.871 359.909L237.088 344.554Z"/>
	<path fill="#57B4F5" d="M259.472 116.916C261.704 117.621 263.133 119.003 264.171 121.083C266.601 125.958 267.53 132.213 268.776 137.522L276.892 175.875C277.825 180.645 279.116 185.536 279.598 190.364C276.06 189.603 272.553 188.669 268.957 188.218C265.607 187.799 262.185 187.813 258.814 187.762L259.472 116.916Z"/>
</svg>
